<?xml version="1.0" standalone="no"?>
<!DOCTYPE svg PUBLIC "-//W3C//DTD SVG 20010904//EN"
 "http://www.w3.org/TR/2001/REC-SVG-20010904/DTD/svg10.dtd">
<svg version="1.0" xmlns="http://www.w3.org/2000/svg"
 width="550.000000pt" height="550.000000pt" viewBox="0 0 550.000000 550.000000"
 preserveAspectRatio="xMidYMid meet">
<metadata>
Created by potrace 1.11, written by Peter Selinger 2001-2013
</metadata>
<g transform="translate(0.000000,550.000000) scale(0.100000,-0.100000)"
fill="#000000" stroke="none">
<path d="M2618 4565 c-2 -2 -26 -6 -53 -10 -116 -14 -217 -37 -314 -72 -36
-13 -70 -25 -76 -27 -76 -23 -357 -180 -385 -215 -3 -3 -27 -24 -55 -46 -71
-56 -235 -224 -235 -240 0 -4 -6 -12 -12 -20 -48 -49 -107 -145 -160 -255 -61
-126 -77 -164 -81 -186 -2 -11 -9 -31 -15 -45 -6 -15 -14 -44 -17 -65 -4 -22
-11 -52 -16 -69 -22 -76 -33 -364 -18 -475 13 -96 18 -133 22 -150 2 -8 8 -33
12 -55 5 -22 10 -42 10 -45 15 -66 83 -240 104 -264 9 -10 15 -20 13 -22 -5
-7 51 -114 60 -114 4 0 8 -7 8 -15 0 -8 5 -15 10 -15 6 0 10 -7 10 -15 0 -8 5
-15 10 -15 6 0 10 -5 10 -11 0 -12 68 -97 132 -164 21 -22 47 -51 58 -64 11
-13 20 -22 20 -19 0 3 28 -21 61 -53 34 -32 65 -59 70 -59 6 0 20 -9 32 -21
31 -28 129 -99 138 -99 4 0 14 -6 21 -13 7 -7 33 -24 58 -38 25 -13 47 -27 50
-30 13 -14 139 -77 144 -72 3 4 6 1 6 -6 0 -7 5 -9 10 -6 6 3 10 3 10 -2 0 -4
17 -16 38 -25 295 -135 376 -182 461 -267 28 -28 49 -51 45 -51 -3 0 5 -15 18
-33 13 -17 22 -34 21 -37 -1 -3 3 -23 9 -45 6 -22 11 -44 10 -48 -4 -15 19
-47 34 -47 8 0 13 4 10 9 -4 5 -2 11 2 13 10 4 -37 242 -68 343 -12 39 -22 75
-23 80 -2 6 -6 16 -10 23 -5 6 -6 12 -3 12 2 0 -7 30 -21 67 -13 38 -26 77
-29 88 -2 11 -8 29 -13 40 -14 27 -93 267 -94 283 0 6 -5 12 -10 12 -6 0 -8 2
-5 6 3 3 -3 37 -14 77 -10 40 -21 83 -24 97 -3 14 -10 43 -16 65 -5 22 -11 49
-13 60 -1 11 -5 36 -9 55 -15 83 -17 98 -22 145 -10 91 -12 129 -13 224 -1 52
-3 92 -6 89 -6 -6 -18 -179 -18 -253 0 -54 11 -209 17 -242 3 -11 7 -36 10
-54 6 -36 26 -137 30 -154 2 -5 6 -23 10 -40 19 -80 62 -229 76 -260 16 -34
50 -148 47 -152 -2 -2 -20 3 -39 12 -20 8 -44 13 -54 10 -93 -19 -87 -20 -73
3 7 11 15 20 18 19 11 -2 51 14 51 22 0 4 -30 8 -67 10 -38 2 -76 4 -85 4 -10
1 -18 4 -18 8 0 4 -10 10 -22 15 -16 5 11 10 82 13 l105 6 -50 17 c-27 10 -75
23 -105 29 -61 13 -139 49 -160 74 -18 22 0 41 27 27 26 -14 183 -45 190 -38
4 3 -1 6 -9 6 -9 0 -21 7 -28 15 -7 8 -16 13 -20 10 -4 -3 -11 2 -14 11 -3 8
-10 13 -15 10 -5 -3 -14 1 -21 9 -7 8 -16 12 -21 9 -5 -3 -9 0 -9 5 0 6 -6 11
-12 11 -7 0 -27 13 -44 30 -18 16 -33 28 -35 26 -2 -1 -23 17 -45 41 -23 24
-40 43 -37 43 2 0 -7 15 -20 33 -21 28 -64 112 -58 112 1 0 -2 13 -8 28 -6 15
-13 41 -16 58 -5 27 -4 28 14 17 11 -7 18 -14 16 -16 -2 -3 6 -13 18 -24 12
-11 15 -16 7 -13 -8 4 3 -11 25 -33 28 -27 44 -37 52 -30 9 7 3 22 -20 56 -18
26 -36 50 -42 54 -5 4 -6 8 -1 8 5 0 2 8 -6 18 -13 14 -28 43 -33 62 0 3 -11
27 -23 54 -12 27 -24 59 -26 72 -3 12 -9 31 -15 42 -6 11 -8 22 -5 25 3 3 2
12 -2 19 -4 7 -9 19 -10 28 -1 8 -4 29 -8 45 -28 131 -24 364 9 525 2 14 7 39
11 55 11 55 47 170 57 183 5 6 7 12 4 12 -3 0 14 39 38 88 57 112 79 150 113
187 7 8 11 15 8 15 -3 0 5 10 17 23 12 12 38 40 57 62 20 22 60 60 90 85 30
25 57 47 60 50 29 29 178 99 257 121 98 28 250 30 338 5 33 -9 65 -18 70 -20
6 -1 28 -12 50 -23 22 -11 43 -21 48 -22 4 -1 15 -9 25 -18 10 -10 35 -33 56
-52 35 -31 116 -144 116 -162 0 -4 5 -20 12 -36 20 -50 31 -118 31 -198 0 -50
-11 -143 -18 -155 -2 -4 -7 -21 -10 -38 -8 -47 -64 -167 -113 -244 -24 -37
-42 -69 -40 -71 2 -2 -5 -11 -14 -21 -10 -10 -18 -24 -18 -32 0 -8 -4 -14 -8
-14 -7 0 -85 -152 -87 -170 0 -3 -7 -16 -15 -30 -7 -14 -12 -25 -11 -25 3 0
-8 -33 -19 -60 -40 -93 -53 -210 -30 -261 14 -32 84 -85 130 -98 89 -25 197
-14 239 25 12 11 21 17 21 13 0 -4 14 7 30 24 17 18 30 29 30 27 0 -3 12 6 28
20 34 32 66 41 98 26 29 -13 47 -55 38 -85 -4 -11 -6 -23 -5 -25 2 -2 -2 -7
-7 -10 -15 -9 -72 -128 -72 -150 0 -24 40 -63 69 -68 12 -2 38 6 59 16 55 28
182 120 182 131 0 6 6 9 13 8 6 -2 11 3 9 10 -1 6 1 11 5 10 5 -1 26 14 47 35
21 20 36 37 33 37 -4 0 9 16 28 35 19 19 35 38 35 43 0 5 11 21 25 36 14 15
23 31 20 36 -3 4 2 11 11 14 8 3 12 10 9 16 -3 5 -2 10 3 10 10 0 50 87 87
190 46 127 70 365 50 506 -15 106 -28 181 -36 202 -5 13 -11 36 -14 51 -12 67
-122 312 -158 351 -9 11 -17 22 -17 25 0 6 -32 58 -41 65 -3 3 -10 12 -15 21
-40 73 -289 319 -322 319 -7 0 -12 4 -12 8 0 10 -125 92 -140 92 -5 0 -10 4
-10 9 0 10 -39 27 -52 23 -5 -1 -8 3 -8 9 0 5 -4 7 -10 4 -5 -3 -10 -1 -10 5
0 6 -4 8 -10 5 -5 -3 -10 -3 -10 2 0 6 -101 51 -130 59 -3 0 -12 4 -20 7 -64
27 -179 57 -280 73 -19 3 -46 8 -60 10 -29 6 -337 14 -342 9z"/>
<path d="M3030 2226 c-12 -30 -21 -67 -55 -211 -20 -86 -24 -103 -30 -138 -3
-15 -12 -60 -21 -100 -18 -86 -29 -270 -20 -320 13 -70 65 -70 107 0 29 50 71
115 84 130 6 6 21 26 34 43 41 53 115 120 133 120 9 0 19 9 23 20 3 11 25 36
47 57 23 21 48 45 58 54 9 8 25 22 37 30 11 8 43 33 71 57 52 45 56 57 31 104
-7 13 -12 25 -11 28 5 15 -12 40 -31 46 -12 4 -76 8 -142 9 -89 0 -134 6 -172
19 -29 11 -53 23 -53 28 0 4 -6 8 -14 8 -7 0 -25 11 -39 24 l-26 24 -11 -32z"/>
<path d="M2210 2126 c0 -12 12 -21 38 -27 4 -1 12 -9 19 -18 7 -9 13 -13 13
-9 0 8 -57 68 -65 68 -3 0 -5 -6 -5 -14z"/>
</g>
</svg>
